<svg data-v-423bf9ae="" xmlns="http://www.w3.org/2000/svg" viewBox="0 0 58.400207452105256 60" class="icon"><!----><!----><!----><!----><g data-v-423bf9ae="" id="883e5a00-4917-4d50-bf92-f344f4dd8dd9" transform="matrix(0.658913465409498,0,0,0.658913465409498,-4.406768123258097,-3.9146061447213043)" stroke="none" fill="white"><path d="M76.38 28.801c-3.377 0-6.562-4.777-6.562-4.777-2.865-5.438-.857-7.925-.035-8.649-5.443-5.205-13.345-8.487-22.125-8.487-8.613 0-16.38 3.157-21.811 8.192.102.021.204.042.307.061 0 0 3.769 2.24.268 8.883 0 0-3.182 4.777-6.562 4.777a3.38 3.38 0 0 1-1.156-.201s-.136-.102-.371-.308a21.834 21.834 0 0 0-.376 4.037c0 14.028 13.324 25.442 29.701 25.442 16.378 0 29.702-11.414 29.702-25.442 0-1.222-.104-2.423-.299-3.6a3.353 3.353 0 0 1-.681.072zM32.308 46.985c-.095-.028-.186-.052-.274-.096l-.049-.016-.013-.022c-.535-.297-.912-.843-.912-1.498a1.73 1.73 0 0 1 1.729-1.731c.467 0 .885.188 1.196.486.031.008.055.012.087.021l7.084 5.911-8.848-3.055zm30.64-.134l-.013.022-.05.016c-.088.043-.177.068-.274.096l-8.85 3.056 7.085-5.911.088-.021a1.722 1.722 0 0 1 1.196-.486c.955 0 1.729.772 1.729 1.731-.001.654-.376 1.2-.911 1.497zM88.131 63.728c.462-2.32.673-4.524.67-6.597-.041-12.367-7.222-19.82-10.442-22.553a23.183 23.183 0 0 1-.872 4.455c3.068 3.129 7.467 9.167 7.459 18.098a29.82 29.82 0 0 1-.547 5.556l-5.492-4.583 1.045 20.111c9.128-5.454 15.367-15.582 15.367-15.582l-7.188 1.095zM31.119 82.264c.234-1.877.558-3.762.97-5.64a27.72 27.72 0 0 0-4.345-.544c-.149 3.486 1.619 5.273 3.375 6.184zM32.459 85.816l.005.001.015-.151c-.006.052-.015.1-.02.15z"></path><path d="M26.277 79.434c-2.65-1.268-5.547-3.005-8.098-5.317-4.211-3.833-7.506-9.072-7.637-16.687 0-.028-.002-.052-.002-.143.006-1.25.307-10.516 7.631-17.243-.014-.032-.021-.063-.029-.093a23.608 23.608 0 0 1-.58-1.944c-.043-.175-.091-.346-.133-.522-.119-.526-.22-1.06-.305-1.597C7.046 43.799 6.682 55.574 6.688 57.287c0 .135.002.212.002.236.151 11.701 7.18 19.051 13.874 23.176 3.191 1.982 6.33 3.305 8.765 4.153-1.432-1.046-2.782-2.735-3.052-5.418zM64.281 82.51c1.757-.914 3.524-2.699 3.376-6.184a27.606 27.606 0 0 0-4.346.546 62.1 62.1 0 0 1 .97 5.638zM39.078 59.681c-.45-.108-.903-.227-1.355-.353-3.007 2.564-7.54 7.5-9.946 15.388 1.256.048 2.888.202 4.799.58a66.909 66.909 0 0 1 6.502-15.615zM57.656 59.314c-.452.125-.897.243-1.341.352a66.936 66.936 0 0 1 6.509 15.63 31.094 31.094 0 0 1 4.798-.58c-2.408-7.899-6.95-12.838-9.966-15.402zM70.645 23.489c.758 1.134 3.413 4.329 5.736 4.329.232 0 .461-.032.682-.097 1.115-.925 9.195-8.164 6.758-21.779-4.655 7.097-9.793 9.429-13.337 10.124-.526.424-2.46 2.434.161 7.423zM19.177 27.721c.223.064.454.097.685.097 2.308 0 4.945-3.146 5.697-4.264 2.659-5.051.729-7.064.204-7.488-3.546-.695-8.688-3.028-13.339-10.125-2.486 13.745 5.635 20.872 6.753 21.78zM47.659 58.892c-1.949 0-3.85-.174-5.7-.473-2.776 4.33-8.135 14.187-9.48 27.249a58.71 58.71 0 0 1 .493-3.707l.006.094c-.208 1.25-.376 2.945-.513 3.945h-.001c-.379 3-.44 8 .017 11h4.372c.558-1 2.578-8 5.903-10h9.487c3.325 2 5.345 9 5.902 10h4.753c2.046-18-5.883-33.421-9.477-39.03-1.871.305-3.791.922-5.762.922z"></path></g><!----></svg>