<svg data-v-fde0c5aa="" xmlns="http://www.w3.org/2000/svg" viewBox="0 0 300 300" class="iconLeft"><!----><defs data-v-fde0c5aa=""><!----></defs><rect data-v-fde0c5aa="" fill="#2A3520" x="0" y="0" width="300px" height="300px" class="logo-background-square"></rect><defs data-v-fde0c5aa=""><!----></defs><g data-v-fde0c5aa="" id="08c1b7e0-ef3c-48d5-92cd-7b69b2131097" fill="#FFFFFF" transform="matrix(2.919726242040582,0,0,2.919726242040582,98.6559282407406,123.59107522186851)"><path d="M4.86 14.52C6.68 14.52 7.88 13.19 7.88 10.74C7.88 8.29 6.68 6.96 4.86 6.96C3.71 6.96 3.02 7.52 2.70 8.20L2.65 8.20L2.65 3.57L0.35 4.00L0.35 4.51L1.40 4.70L1.40 14.35L1.89 14.35L2.60 13.29L2.66 13.29C2.97 13.97 3.71 14.52 4.86 14.52ZM4.49 13.68C3.58 13.68 2.65 13.16 2.65 12.26L2.65 9.21C2.65 8.32 3.58 7.80 4.49 7.80C5.77 7.80 6.52 8.72 6.52 10.14L6.52 11.34C6.52 12.75 5.77 13.68 4.49 13.68ZM11.61 14.52C12.91 14.52 13.47 13.93 13.75 13.30L13.82 13.30L13.82 13.34C13.82 14.06 14.25 14.52 15.02 14.52C15.47 14.52 15.83 14.39 16.04 14.24L16.04 13.71L14.99 13.71L14.99 9.20C14.99 7.78 14.07 6.96 12.53 6.96C10.77 6.96 9.77 7.77 9.77 8.60C9.77 9.16 10.11 9.45 10.58 9.45C11.09 9.45 11.41 9.16 11.41 8.64C11.41 8.22 11.16 8.01 10.93 7.88L10.93 7.85C11.20 7.71 11.65 7.63 12.08 7.63C13.19 7.63 13.75 8.26 13.75 9.38L13.75 10.42L12.73 10.42C10.29 10.42 9.42 11.16 9.42 12.56C9.42 13.76 10.25 14.52 11.61 14.52ZM12.14 13.71C11.27 13.71 10.75 13.34 10.75 12.64L10.75 12.36C10.75 11.48 11.24 11.02 12.85 11.02L13.75 11.02L13.75 12.35C13.75 13.27 13.02 13.71 12.14 13.71ZM20.26 14.52C21.41 14.52 22.11 13.97 22.41 13.29L22.47 13.29L22.47 14.52L24.77 14.08L24.77 13.58L23.72 13.38L23.72 3.57L21.42 4.00L21.42 4.51L22.47 4.70L22.47 8.20L22.41 8.20C22.09 7.52 21.41 6.96 20.26 6.96C18.44 6.96 17.23 8.29 17.23 10.74C17.23 13.19 18.44 14.52 20.26 14.52ZM20.62 13.68C19.35 13.68 18.59 12.75 18.59 11.34L18.59 10.14C18.59 8.72 19.35 7.80 20.62 7.80C21.53 7.80 22.47 8.32 22.47 9.21L22.47 12.26C22.47 13.16 21.53 13.68 20.62 13.68ZM29.26 14.52C30.83 14.52 31.74 13.59 32.10 12.60L31.61 12.29C31.22 13.05 30.62 13.57 29.46 13.57C28.11 13.57 27.27 12.57 27.27 11.07L27.27 10.01C27.27 8.67 28.21 7.64 29.51 7.64C30.11 7.64 30.49 7.74 30.72 7.87L30.72 7.91C30.32 8.08 30.09 8.40 30.09 8.82C30.09 9.31 30.39 9.73 31.00 9.73C31.57 9.73 31.93 9.34 31.93 8.72C31.93 7.70 30.94 6.96 29.37 6.96C27.31 6.96 25.89 8.44 25.89 10.74C25.89 12.99 27.12 14.52 29.26 14.52ZM36.57 13.79C35.17 13.79 34.57 12.81 34.57 11.54L34.57 9.94C34.57 8.67 35.17 7.69 36.57 7.69C37.97 7.69 38.57 8.67 38.57 9.94L38.57 11.54C38.57 12.81 37.97 13.79 36.57 13.79ZM36.57 14.52C38.61 14.52 39.98 13.02 39.98 10.74C39.98 8.46 38.61 6.96 36.57 6.96C34.52 6.96 33.15 8.46 33.15 10.74C33.15 13.02 34.52 14.52 36.57 14.52ZM41.31 14.35L44.94 14.35L44.94 13.68L43.61 13.68L43.61 9.20C43.61 8.44 44.46 7.60 45.25 7.60C45.43 7.60 45.53 7.62 45.61 7.63L45.61 7.66C45.39 7.69 45.19 7.94 45.19 8.34C45.19 8.78 45.54 9.10 46.07 9.10C46.55 9.10 46.89 8.75 46.89 8.16C46.89 7.38 46.30 6.96 45.44 6.96C44.42 6.96 43.92 7.62 43.64 8.20L43.57 8.20L43.57 6.96L41.31 7.39L41.31 7.90L42.36 8.09L42.36 13.68L41.31 13.68ZM50.75 14.52C51.90 14.52 52.60 13.97 52.91 13.29L52.96 13.29L52.96 14.52L55.26 14.08L55.26 13.58L54.21 13.38L54.21 3.57L51.91 4.00L51.91 4.51L52.96 4.70L52.96 8.20L52.91 8.20C52.58 7.52 51.90 6.96 50.75 6.96C48.93 6.96 47.73 8.29 47.73 10.74C47.73 13.19 48.93 14.52 50.75 14.52ZM51.11 13.68C49.84 13.68 49.08 12.75 49.08 11.34L49.08 10.14C49.08 8.72 49.84 7.80 51.11 7.80C52.02 7.80 52.96 8.32 52.96 9.21L52.96 12.26C52.96 13.16 52.02 13.68 51.11 13.68Z"></path></g><defs data-v-fde0c5aa=""><!----></defs><g data-v-fde0c5aa="" id="d4eef621-7c17-4148-90a4-b4919b1ee994" stroke="none" fill="#D9C6C8" transform="matrix(0.5266531354764836,0,0,0.5266531354764836,36.47778063923941,122.89289929222012)"><path d="M76.38 28.801c-3.377 0-6.562-4.777-6.562-4.777-2.865-5.438-.857-7.925-.035-8.649-5.443-5.205-13.345-8.487-22.125-8.487-8.613 0-16.38 3.157-21.811 8.192.102.021.204.042.307.061 0 0 3.769 2.24.268 8.883 0 0-3.182 4.777-6.562 4.777a3.38 3.38 0 0 1-1.156-.201s-.136-.102-.371-.308a21.834 21.834 0 0 0-.376 4.037c0 14.028 13.324 25.442 29.701 25.442 16.378 0 29.702-11.414 29.702-25.442 0-1.222-.104-2.423-.299-3.6a3.353 3.353 0 0 1-.681.072zM32.308 46.985c-.095-.028-.186-.052-.274-.096l-.049-.016-.013-.022c-.535-.297-.912-.843-.912-1.498a1.73 1.73 0 0 1 1.729-1.731c.467 0 .885.188 1.196.486.031.008.055.012.087.021l7.084 5.911-8.848-3.055zm30.64-.134l-.013.022-.05.016c-.088.043-.177.068-.274.096l-8.85 3.056 7.085-5.911.088-.021a1.722 1.722 0 0 1 1.196-.486c.955 0 1.729.772 1.729 1.731-.001.654-.376 1.2-.911 1.497zM88.131 63.728c.462-2.32.673-4.524.67-6.597-.041-12.367-7.222-19.82-10.442-22.553a23.183 23.183 0 0 1-.872 4.455c3.068 3.129 7.467 9.167 7.459 18.098a29.82 29.82 0 0 1-.547 5.556l-5.492-4.583 1.045 20.111c9.128-5.454 15.367-15.582 15.367-15.582l-7.188 1.095zM31.119 82.264c.234-1.877.558-3.762.97-5.64a27.72 27.72 0 0 0-4.345-.544c-.149 3.486 1.619 5.273 3.375 6.184zM32.459 85.816l.005.001.015-.151c-.006.052-.015.1-.02.15z"></path><path d="M26.277 79.434c-2.65-1.268-5.547-3.005-8.098-5.317-4.211-3.833-7.506-9.072-7.637-16.687 0-.028-.002-.052-.002-.143.006-1.25.307-10.516 7.631-17.243-.014-.032-.021-.063-.029-.093a23.608 23.608 0 0 1-.58-1.944c-.043-.175-.091-.346-.133-.522-.119-.526-.22-1.06-.305-1.597C7.046 43.799 6.682 55.574 6.688 57.287c0 .135.002.212.002.236.151 11.701 7.18 19.051 13.874 23.176 3.191 1.982 6.33 3.305 8.765 4.153-1.432-1.046-2.782-2.735-3.052-5.418zM64.281 82.51c1.757-.914 3.524-2.699 3.376-6.184a27.606 27.606 0 0 0-4.346.546 62.1 62.1 0 0 1 .97 5.638zM39.078 59.681c-.45-.108-.903-.227-1.355-.353-3.007 2.564-7.54 7.5-9.946 15.388 1.256.048 2.888.202 4.799.58a66.909 66.909 0 0 1 6.502-15.615zM57.656 59.314c-.452.125-.897.243-1.341.352a66.936 66.936 0 0 1 6.509 15.63 31.094 31.094 0 0 1 4.798-.58c-2.408-7.899-6.95-12.838-9.966-15.402zM70.645 23.489c.758 1.134 3.413 4.329 5.736 4.329.232 0 .461-.032.682-.097 1.115-.925 9.195-8.164 6.758-21.779-4.655 7.097-9.793 9.429-13.337 10.124-.526.424-2.46 2.434.161 7.423zM19.177 27.721c.223.064.454.097.685.097 2.308 0 4.945-3.146 5.697-4.264 2.659-5.051.729-7.064.204-7.488-3.546-.695-8.688-3.028-13.339-10.125-2.486 13.745 5.635 20.872 6.753 21.78zM47.659 58.892c-1.949 0-3.85-.174-5.7-.473-2.776 4.33-8.135 14.187-9.48 27.249a58.71 58.71 0 0 1 .493-3.707l.006.094c-.208 1.25-.376 2.945-.513 3.945h-.001c-.379 3-.44 8 .017 11h4.372c.558-1 2.578-8 5.903-10h9.487c3.325 2 5.345 9 5.902 10h4.753c2.046-18-5.883-33.421-9.477-39.03-1.871.305-3.791.922-5.762.922z"></path></g><!----></svg>