<svg data-v-423bf9ae="" xmlns="http://www.w3.org/2000/svg" viewBox="0 0 304.96631161651464 166" class="iconAbove"><!----><!----><!----><g data-v-423bf9ae="" id="d26ca6b6-0ab9-40e0-96dc-cfd35adc5f0a" fill="black" transform="matrix(5.7747832548013,0,0,5.7747832548013,-3.464868144875254,90.52025521659048)"><path d="M0.84 12.77L0.84 12.77Q0.73 12.77 0.67 12.68L0.67 12.68L0.67 12.68Q0.60 12.59 0.60 12.46L0.60 12.46L0.60 12.46Q0.62 12.25 0.69 12.21L0.69 12.21L0.69 12.21Q0.76 12.17 0.95 12.17L0.95 12.17L0.95 12.17Q1.36 12.17 1.55 12.02L1.55 12.02L1.55 12.02Q1.75 11.87 1.80 11.66L1.80 11.66L1.80 11.66Q1.85 11.44 1.86 11.09L1.86 11.09L1.86 5.53L1.86 5.53Q1.85 5.18 1.80 4.96L1.80 4.96L1.80 4.96Q1.75 4.75 1.55 4.60L1.55 4.60L1.55 4.60Q1.36 4.45 0.95 4.45L0.95 4.45L0.87 4.45L0.87 4.45Q0.73 4.45 0.67 4.40L0.67 4.40L0.67 4.40Q0.62 4.35 0.60 4.16L0.60 4.16L0.60 4.16Q0.60 4.03 0.67 3.94L0.67 3.94L0.67 3.94Q0.73 3.85 0.84 3.85L0.84 3.85L0.84 3.85Q1.76 3.89 2.51 3.89L2.51 3.89L4.69 3.89L4.69 3.89Q6.03 3.89 7.13 4.43L7.13 4.43L7.13 4.43Q8.23 4.97 8.87 5.98L8.87 5.98L8.87 5.98Q9.51 6.99 9.51 8.36L9.51 8.36L9.51 8.36Q9.51 9.79 8.79 10.77L8.79 10.77L8.79 10.77Q8.06 11.76 6.91 12.24L6.91 12.24L6.91 12.24Q5.75 12.73 4.44 12.73L4.44 12.73L2.51 12.73L2.51 12.73Q1.76 12.73 0.84 12.77L0.84 12.77ZM4.65 12.21L4.65 12.21Q6.29 12.21 7.05 11.19L7.05 11.19L7.05 11.19Q7.81 10.18 7.81 8.36L7.81 8.36L7.81 8.36Q7.81 7.21 7.40 6.31L7.40 6.31L7.40 6.31Q6.99 5.40 6.20 4.90L6.20 4.90L6.20 4.90Q5.42 4.40 4.34 4.40L4.34 4.40L3.25 4.41L3.25 11.26L3.25 11.26Q3.25 11.80 3.58 12.01L3.58 12.01L3.58 12.01Q3.91 12.21 4.65 12.21L4.65 12.21ZM12.54 12.89L12.54 12.89Q11.70 12.89 11.19 12.42L11.19 12.42L11.19 12.42Q10.67 11.94 10.67 11.23L10.67 11.23L10.67 11.23Q10.67 10.35 11.26 9.91L11.26 9.91L11.26 9.91Q11.84 9.46 12.66 9.33L12.66 9.33L12.66 9.33Q13.47 9.20 14.76 9.13L14.76 9.13L14.76 8.02L14.76 8.02Q14.76 7.34 14.41 6.98L14.41 6.98L14.41 6.98Q14.07 6.62 13.31 6.62L13.31 6.62L13.31 6.62Q12.88 6.62 12.56 6.89L12.56 6.89L12.56 6.89Q12.24 7.15 12.24 7.60L12.24 7.60L12.24 7.60Q12.24 7.83 12.34 7.97L12.34 7.97L12.34 7.97Q12.45 8.12 12.57 8.22L12.57 8.22L12.57 8.22Q12.68 8.32 12.68 8.33L12.68 8.33L12.68 8.33Q12.68 8.41 12.51 8.55L12.51 8.55L12.51 8.55Q12.33 8.68 12.08 8.68L12.08 8.68L12.08 8.68Q11.66 8.68 11.42 8.37L11.42 8.37L11.42 8.37Q11.17 8.06 11.17 7.64L11.17 7.64L11.17 7.64Q11.17 6.92 11.82 6.57L11.82 6.57L11.82 6.57Q12.47 6.22 13.40 6.22L13.40 6.22L13.40 6.22Q14.55 6.22 15.27 6.65L15.27 6.65L15.27 6.65Q15.99 7.08 15.99 8.26L15.99 8.26L15.99 11.52L15.99 11.52Q16.00 11.82 16.17 12.08L16.17 12.08L16.17 12.08Q16.34 12.35 16.72 12.35L16.72 12.35L16.72 12.35Q16.83 12.35 16.88 12.39L16.88 12.39L16.88 12.39Q16.93 12.43 16.93 12.57L16.93 12.57L16.93 12.57Q16.93 12.74 16.67 12.82L16.67 12.82L16.67 12.82Q16.41 12.89 16.16 12.89L16.16 12.89L16.16 12.89Q15.62 12.89 15.22 12.59L15.22 12.59L15.22 12.59Q14.81 12.28 14.76 11.76L14.76 11.76L14.76 11.76Q14.46 12.31 13.85 12.60L13.85 12.60L13.85 12.60Q13.24 12.89 12.54 12.89L12.54 12.89ZM12.99 12.14L12.99 12.14Q13.47 12.14 13.87 11.90L13.87 11.90L13.87 11.90Q14.28 11.66 14.52 11.25L14.52 11.25L14.52 11.25Q14.76 10.84 14.76 10.33L14.76 10.33L14.76 9.53L14.76 9.53Q13.29 9.65 12.68 10.01L12.68 10.01L12.68 10.01Q12.08 10.37 12.08 11.19L12.08 11.19L12.08 11.19Q12.08 12.14 12.99 12.14L12.99 12.14ZM18.56 12.92L18.56 12.92Q18.44 12.92 18.37 12.85L18.37 12.85L18.37 12.85Q18.30 12.77 18.30 12.64L18.30 12.64L18.30 4.47L18.30 4.47Q18.30 4.10 18.28 3.93L18.28 3.93L18.28 3.93Q18.26 3.77 18.10 3.64L18.10 3.64L18.10 3.64Q17.95 3.51 17.58 3.51L17.58 3.51L17.58 3.51Q17.42 3.51 17.33 3.46L17.33 3.46L17.33 3.46Q17.25 3.42 17.25 3.23L17.25 3.23L17.25 3.23Q17.25 3.15 17.30 3.07L17.30 3.07L17.30 3.07Q17.36 3.00 17.47 2.98L17.47 2.98L17.47 2.98Q18.35 2.86 18.98 2.62L18.98 2.62L18.98 2.62Q19.18 2.55 19.31 2.53L19.31 2.53L19.35 2.53L19.35 2.53Q19.57 2.53 19.57 2.80L19.57 2.80L19.57 7.03L19.61 7.03L19.61 7.03Q20.02 6.62 20.53 6.42L20.53 6.42L20.53 6.42Q21.04 6.22 21.55 6.22L21.55 6.22L21.55 6.22Q22.37 6.22 23.04 6.64L23.04 6.64L23.04 6.64Q23.72 7.06 24.10 7.81L24.10 7.81L24.10 7.81Q24.49 8.55 24.49 9.51L24.49 9.51L24.49 9.51Q24.49 10.44 24.05 11.22L24.05 11.22L24.05 11.22Q23.60 12.00 22.86 12.45L22.86 12.45L22.86 12.45Q22.12 12.89 21.28 12.89L21.28 12.89L21.28 12.89Q20.03 12.89 19.12 12.21L19.12 12.21L19.05 12.21L19.05 12.21Q19.00 12.32 18.93 12.52L18.93 12.52L18.93 12.52Q18.86 12.71 18.77 12.82L18.77 12.82L18.77 12.82Q18.69 12.92 18.56 12.92L18.56 12.92ZM21.15 12.42L21.15 12.42Q22.01 12.42 22.53 11.64L22.53 11.64L22.53 11.64Q23.06 10.86 23.06 9.56L23.06 9.56L23.06 9.56Q23.06 8.47 22.55 7.69L22.55 7.69L22.55 7.69Q22.05 6.92 21.06 6.92L21.06 6.92L21.06 6.92Q20.17 6.92 19.57 7.56L19.57 7.56L19.57 11.26L19.57 11.26Q19.61 11.48 19.82 11.75L19.82 11.75L19.82 11.75Q20.02 12.03 20.36 12.22L20.36 12.22L20.36 12.22Q20.71 12.42 21.15 12.42L21.15 12.42ZM28.69 12.89L28.69 12.89Q27.26 12.89 26.45 11.98L26.45 11.98L26.45 11.98Q25.63 11.07 25.63 9.55L25.63 9.55L25.63 9.55Q25.66 8.60 26.10 7.85L26.10 7.85L26.10 7.85Q26.54 7.10 27.29 6.67L27.29 6.67L27.29 6.67Q28.03 6.24 28.92 6.22L28.92 6.22L28.92 6.22Q29.82 6.22 30.47 6.55L30.47 6.55L30.47 6.55Q31.12 6.89 31.12 7.67L31.12 7.67L31.12 7.67Q31.12 8.11 30.86 8.44L30.86 8.44L30.86 8.44Q30.60 8.76 30.17 8.76L30.17 8.76L30.17 8.76Q29.90 8.76 29.71 8.62L29.71 8.62L29.71 8.62Q29.53 8.48 29.53 8.39L29.53 8.39L29.53 8.39Q29.53 8.37 29.65 8.26L29.65 8.26L29.65 8.26Q29.78 8.15 29.88 7.99L29.88 7.99L29.88 7.99Q29.99 7.83 29.99 7.62L29.99 7.62L29.99 7.62Q29.99 7.18 29.67 6.96L29.67 6.96L29.67 6.96Q29.36 6.73 28.91 6.73L28.91 6.73L28.91 6.73Q27.83 6.73 27.45 7.53L27.45 7.53L27.45 7.53Q27.06 8.32 27.06 9.51L27.06 9.51L27.06 9.51Q27.06 10.68 27.59 11.44L27.59 11.44L27.59 11.44Q28.13 12.19 29.01 12.19L29.01 12.19L29.01 12.19Q29.61 12.19 30.04 11.94L30.04 11.94L30.04 11.94Q30.46 11.68 30.81 11.14L30.81 11.14L30.81 11.14Q30.86 11.07 30.95 11.07L30.95 11.07L30.95 11.07Q31.02 11.07 31.11 11.12L31.11 11.12L31.11 11.12Q31.18 11.14 31.22 11.21L31.22 11.21L31.22 11.21Q31.26 11.28 31.26 11.35L31.26 11.35L31.26 11.35Q31.26 11.40 31.22 11.47L31.22 11.47L31.22 11.47Q30.76 12.12 30.07 12.51L30.07 12.51L30.07 12.51Q29.39 12.89 28.69 12.89L28.69 12.89ZM35.55 12.89L35.55 12.89Q34.59 12.89 33.85 12.44L33.85 12.44L33.85 12.44Q33.11 11.98 32.70 11.24L32.70 11.24L32.70 11.24Q32.28 10.49 32.28 9.65L32.28 9.65L32.28 9.65Q32.28 8.60 32.77 7.82L32.77 7.82L32.77 7.82Q33.26 7.04 34.02 6.63L34.02 6.63L34.02 6.63Q34.78 6.22 35.55 6.22L35.55 6.22L35.55 6.22Q36.50 6.22 37.24 6.67L37.24 6.67L37.24 6.67Q37.98 7.13 38.40 7.88L38.40 7.88L38.40 7.88Q38.81 8.62 38.81 9.46L38.81 9.46L38.81 9.46Q38.81 10.51 38.31 11.29L38.31 11.29L38.31 11.29Q37.81 12.07 37.06 12.48L37.06 12.48L37.06 12.48Q36.30 12.89 35.55 12.89L35.55 12.89ZM35.55 12.38L35.55 12.38Q36.50 12.38 36.94 11.56L36.94 11.56L36.94 11.56Q37.38 10.75 37.38 9.46L37.38 9.46L37.38 9.46Q37.38 8.26 36.92 7.50L36.92 7.50L36.92 7.50Q36.47 6.73 35.55 6.73L35.55 6.73L35.55 6.73Q34.58 6.73 34.15 7.53L34.15 7.53L34.15 7.53Q33.71 8.33 33.71 9.62L33.71 9.62L33.71 9.62Q33.71 10.82 34.16 11.60L34.16 11.60L34.16 11.60Q34.61 12.38 35.55 12.38L35.55 12.38ZM40.07 12.77L40.07 12.77Q39.97 12.77 39.91 12.68L39.91 12.68L39.91 12.68Q39.84 12.60 39.84 12.49L39.84 12.49L39.84 12.49Q39.86 12.31 39.93 12.27L39.93 12.27L39.93 12.27Q40.00 12.24 40.18 12.24L40.18 12.24L40.18 12.24Q40.54 12.24 40.70 12.11L40.70 12.11L40.70 12.11Q40.85 11.98 40.87 11.82L40.87 11.82L40.87 11.82Q40.89 11.65 40.89 11.28L40.89 11.28L40.89 8.08L40.89 8.08Q40.89 7.71 40.87 7.55L40.87 7.55L40.87 7.55Q40.85 7.38 40.70 7.25L40.70 7.25L40.70 7.25Q40.54 7.13 40.18 7.13L40.18 7.13L40.18 7.13Q40.01 7.13 39.93 7.08L39.93 7.08L39.93 7.08Q39.84 7.03 39.84 6.85L39.84 6.85L39.84 6.85Q39.84 6.76 39.90 6.69L39.90 6.69L39.90 6.69Q39.96 6.61 40.07 6.59L40.07 6.59L40.07 6.59Q40.98 6.45 41.57 6.23L41.57 6.23L41.57 6.23Q41.80 6.16 41.89 6.15L41.89 6.15L41.93 6.15L41.93 6.15Q42.15 6.15 42.15 6.41L42.15 6.41L42.15 7.28L42.20 7.28L42.20 7.28Q42.69 6.79 43.19 6.50L43.19 6.50L43.19 6.50Q43.69 6.22 44.10 6.22L44.10 6.22L44.10 6.22Q44.56 6.22 44.84 6.56L44.84 6.56L44.84 6.56Q45.11 6.90 45.11 7.35L45.11 7.35L45.11 7.35Q45.11 7.74 44.87 8.05L44.87 8.05L44.87 8.05Q44.63 8.36 44.21 8.36L44.21 8.36L44.21 8.36Q44.02 8.36 43.87 8.27L43.87 8.27L43.87 8.27Q43.72 8.19 43.71 8.13L43.71 8.13L43.71 8.13Q43.72 8.11 43.85 7.96L43.85 7.96L43.85 7.96Q43.97 7.81 43.97 7.62L43.97 7.62L43.97 7.62Q43.97 7.36 43.84 7.21L43.84 7.21L43.84 7.21Q43.71 7.06 43.48 7.06L43.48 7.06L43.48 7.06Q43.25 7.06 42.88 7.29L42.88 7.29L42.88 7.29Q42.52 7.52 42.17 7.87L42.17 7.87L42.17 11.28L42.17 11.28Q42.17 11.65 42.20 11.82L42.20 11.82L42.20 11.82Q42.22 11.98 42.38 12.11L42.38 12.11L42.38 12.11Q42.53 12.24 42.90 12.24L42.90 12.24L42.98 12.24L42.98 12.24Q43.09 12.24 43.15 12.28L43.15 12.28L43.15 12.28Q43.20 12.32 43.22 12.49L43.22 12.49L43.22 12.49Q43.22 12.60 43.16 12.68L43.16 12.68L43.16 12.68Q43.11 12.77 42.99 12.77L42.99 12.77L42.99 12.77Q42.18 12.73 41.52 12.73L41.52 12.73L41.52 12.73Q40.89 12.73 40.07 12.77L40.07 12.77ZM48.85 12.89L48.85 12.89Q48.06 12.89 47.39 12.47L47.39 12.47L47.39 12.47Q46.72 12.04 46.31 11.28L46.31 11.28L46.31 11.28Q45.91 10.51 45.91 9.55L45.91 9.55L45.91 9.55Q45.91 8.68 46.33 7.91L46.33 7.91L46.33 7.91Q46.75 7.14 47.49 6.68L47.49 6.68L47.49 6.68Q48.23 6.22 49.14 6.22L49.14 6.22L49.14 6.22Q49.57 6.22 50.01 6.32L50.01 6.32L50.01 6.32Q50.44 6.43 50.76 6.61L50.76 6.61L50.81 6.61L50.81 4.47L50.81 4.47Q50.81 4.10 50.79 3.93L50.79 3.93L50.79 3.93Q50.76 3.77 50.61 3.64L50.61 3.64L50.61 3.64Q50.46 3.51 50.09 3.51L50.09 3.51L50.09 3.51Q49.92 3.51 49.84 3.46L49.84 3.46L49.84 3.46Q49.76 3.42 49.76 3.23L49.76 3.23L49.76 3.23Q49.76 3.15 49.81 3.07L49.81 3.07L49.81 3.07Q49.87 3.00 49.98 2.98L49.98 2.98L49.98 2.98Q50.86 2.86 51.49 2.62L51.49 2.62L51.49 2.62Q51.69 2.55 51.81 2.53L51.81 2.53L51.86 2.53L51.86 2.53Q52.08 2.53 52.08 2.80L52.08 2.80L52.08 11.44L52.08 11.44Q52.08 12.26 53.17 12.26L53.17 12.26L53.17 12.26Q53.41 12.26 53.41 12.49L53.41 12.49L53.41 12.49Q53.41 12.68 53.17 12.73L53.17 12.73L50.95 12.88L50.95 12.88Q50.85 12.88 50.83 12.82L50.83 12.82L50.83 12.82Q50.82 12.75 50.82 12.60L50.82 12.60L50.82 12.04L50.78 12.04L50.78 12.04Q50.41 12.42 49.89 12.66L49.89 12.66L49.89 12.66Q49.36 12.89 48.85 12.89L48.85 12.89ZM49.32 12.19L49.32 12.19Q49.81 12.19 50.16 12.01L50.16 12.01L50.16 12.01Q50.50 11.82 50.81 11.49L50.81 11.49L50.81 7.80L50.81 7.80Q50.68 7.39 50.28 7.06L50.28 7.06L50.28 7.06Q49.88 6.72 49.28 6.72L49.28 6.72L49.28 6.72Q48.73 6.72 48.29 7.06L48.29 7.06L48.29 7.06Q47.85 7.41 47.60 8.06L47.60 8.06L47.60 8.06Q47.35 8.72 47.35 9.62L47.35 9.62L47.35 9.62Q47.35 10.70 47.86 11.45L47.86 11.45L47.86 11.45Q48.37 12.19 49.32 12.19L49.32 12.19Z"></path></g><!----><g data-v-423bf9ae="" id="fd2a0f0b-8ef4-46c6-80b3-7937827148c7" transform="matrix(1.0117666456434462,0,0,1.0117666456434462,101.08432378283477,-5.13513419967785)" stroke="none" fill="black"><path d="M76.38 28.801c-3.377 0-6.562-4.777-6.562-4.777-2.865-5.438-.857-7.925-.035-8.649-5.443-5.205-13.345-8.487-22.125-8.487-8.613 0-16.38 3.157-21.811 8.192.102.021.204.042.307.061 0 0 3.769 2.24.268 8.883 0 0-3.182 4.777-6.562 4.777a3.38 3.38 0 0 1-1.156-.201s-.136-.102-.371-.308a21.834 21.834 0 0 0-.376 4.037c0 14.028 13.324 25.442 29.701 25.442 16.378 0 29.702-11.414 29.702-25.442 0-1.222-.104-2.423-.299-3.6a3.353 3.353 0 0 1-.681.072zM32.308 46.985c-.095-.028-.186-.052-.274-.096l-.049-.016-.013-.022c-.535-.297-.912-.843-.912-1.498a1.73 1.73 0 0 1 1.729-1.731c.467 0 .885.188 1.196.486.031.008.055.012.087.021l7.084 5.911-8.848-3.055zm30.64-.134l-.013.022-.05.016c-.088.043-.177.068-.274.096l-8.85 3.056 7.085-5.911.088-.021a1.722 1.722 0 0 1 1.196-.486c.955 0 1.729.772 1.729 1.731-.001.654-.376 1.2-.911 1.497zM88.131 63.728c.462-2.32.673-4.524.67-6.597-.041-12.367-7.222-19.82-10.442-22.553a23.183 23.183 0 0 1-.872 4.455c3.068 3.129 7.467 9.167 7.459 18.098a29.82 29.82 0 0 1-.547 5.556l-5.492-4.583 1.045 20.111c9.128-5.454 15.367-15.582 15.367-15.582l-7.188 1.095zM31.119 82.264c.234-1.877.558-3.762.97-5.64a27.72 27.72 0 0 0-4.345-.544c-.149 3.486 1.619 5.273 3.375 6.184zM32.459 85.816l.005.001.015-.151c-.006.052-.015.1-.02.15z"></path><path d="M26.277 79.434c-2.65-1.268-5.547-3.005-8.098-5.317-4.211-3.833-7.506-9.072-7.637-16.687 0-.028-.002-.052-.002-.143.006-1.25.307-10.516 7.631-17.243-.014-.032-.021-.063-.029-.093a23.608 23.608 0 0 1-.58-1.944c-.043-.175-.091-.346-.133-.522-.119-.526-.22-1.06-.305-1.597C7.046 43.799 6.682 55.574 6.688 57.287c0 .135.002.212.002.236.151 11.701 7.18 19.051 13.874 23.176 3.191 1.982 6.33 3.305 8.765 4.153-1.432-1.046-2.782-2.735-3.052-5.418zM64.281 82.51c1.757-.914 3.524-2.699 3.376-6.184a27.606 27.606 0 0 0-4.346.546 62.1 62.1 0 0 1 .97 5.638zM39.078 59.681c-.45-.108-.903-.227-1.355-.353-3.007 2.564-7.54 7.5-9.946 15.388 1.256.048 2.888.202 4.799.58a66.909 66.909 0 0 1 6.502-15.615zM57.656 59.314c-.452.125-.897.243-1.341.352a66.936 66.936 0 0 1 6.509 15.63 31.094 31.094 0 0 1 4.798-.58c-2.408-7.899-6.95-12.838-9.966-15.402zM70.645 23.489c.758 1.134 3.413 4.329 5.736 4.329.232 0 .461-.032.682-.097 1.115-.925 9.195-8.164 6.758-21.779-4.655 7.097-9.793 9.429-13.337 10.124-.526.424-2.46 2.434.161 7.423zM19.177 27.721c.223.064.454.097.685.097 2.308 0 4.945-3.146 5.697-4.264 2.659-5.051.729-7.064.204-7.488-3.546-.695-8.688-3.028-13.339-10.125-2.486 13.745 5.635 20.872 6.753 21.78zM47.659 58.892c-1.949 0-3.85-.174-5.7-.473-2.776 4.33-8.135 14.187-9.48 27.249a58.71 58.71 0 0 1 .493-3.707l.006.094c-.208 1.25-.376 2.945-.513 3.945h-.001c-.379 3-.44 8 .017 11h4.372c.558-1 2.578-8 5.903-10h9.487c3.325 2 5.345 9 5.902 10h4.753c2.046-18-5.883-33.421-9.477-39.03-1.871.305-3.791.922-5.762.922z"></path></g><!----></svg>